<svg xmlns="http://www.w3.org/2000/svg" viewBox="0 0 452.86 325.38"><defs><style>.cls-1,.cls-2,.cls-3,.cls-4{fill:#fff;}.cls-1{stroke:#2ba69d;stroke-miterlimit:10;stroke-width:16px;}.cls-2,.cls-4{stroke:#f3a716;}.cls-2,.cls-3,.cls-4{stroke-linecap:round;stroke-linejoin:round;}.cls-2{stroke-width:20px;}.cls-3{stroke:#fb414a;stroke-width:10px;}.cls-4{stroke-width:14px;}</style></defs><title>btncreategroup</title><g id="Слой_1" data-name="Слой 1"><path class="cls-1" d="M375.29,225.81" transform="translate(-52.28 -129.07)"/><path class="cls-1" d="M448.89,316.83c-3.38-94.39-73.6-91-73.6-91s-73,3.94-75.84,91c0,0-8.43,42.13,75.84,42.13S448.89,316.83,448.89,316.83Z" transform="translate(-52.28 -129.07)"/><circle class="cls-1" cx="323.01" cy="59.12" r="51.12"/><path class="cls-1" d="M139.33,225.81" transform="translate(-52.28 -129.07)"/><path class="cls-1" d="M210,316.83c-3.37-94.39-73.59-91-73.59-91s-73,3.94-75.85,91c0,0-8.42,42.13,75.85,42.13S210,316.83,210,316.83Z" transform="translate(-52.28 -129.07)"/><circle class="cls-1" cx="84.08" cy="59.12" r="51.12"/><path class="cls-1" d="M256.19,241.55" transform="translate(-52.28 -129.07)"/><path class="cls-1" d="M329.78,332.56c-3.37-94.38-73.59-91-73.59-91s-73,3.94-75.84,91c0,0-8.43,42.14,75.84,42.14S329.78,332.56,329.78,332.56Z" transform="translate(-52.28 -129.07)"/><circle class="cls-1" cx="203.91" cy="74.86" r="51.12"/></g><g id="Слой_2" data-name="Слой 2"><circle class="cls-2" cx="348.95" cy="221.47" r="93.91"/><path class="cls-3" d="M409.65,305.08" transform="translate(-52.28 -129.07)"/><path class="cls-4" d="M374.83,369.26H357.29s-11.16-1.64-11.16-16.77S357.29,336,357.29,336h27.36V303.54s1.64-11.16,16.77-11.16,16.45,11.16,16.45,11.16v32.29l9.75-.1h17.54s11.16,1.64,11.16,16.77S445.16,369,445.16,369H417.8v32.49s-1.64,11.16-16.76,11.16-16.46-11.16-16.46-11.16V369.16Z" transform="translate(-52.28 -129.07)"/></g></svg>