<svg id="Слой_2" data-name="Слой 2" xmlns="http://www.w3.org/2000/svg" viewBox="0 0 405.04 253.63"><defs><style>.cls-1{fill:#fff;stroke:#2ba69d;stroke-miterlimit:10;stroke-width:16px;}</style></defs><title>btngroup</title><g id="Слой_3" data-name="Слой 3"><path class="cls-1" d="M378.16,246.79" transform="translate(-55.15 -150.04)"/><path class="cls-1" d="M451.75,337.8c-3.37-94.38-73.59-91-73.59-91s-73,3.93-75.85,91c0,0-8.42,42.14,75.85,42.14S451.75,337.8,451.75,337.8Z" transform="translate(-55.15 -150.04)"/><circle class="cls-1" cx="323.01" cy="59.12" r="51.12"/><path class="cls-1" d="M142.2,246.79" transform="translate(-55.15 -150.04)"/><path class="cls-1" d="M212.82,337.8c-3.37-94.38-73.6-91-73.6-91s-73,3.93-75.84,91c0,0-8.42,42.14,75.84,42.14S212.82,337.8,212.82,337.8Z" transform="translate(-55.15 -150.04)"/><circle class="cls-1" cx="84.08" cy="59.12" r="51.12"/></g><path class="cls-1" d="M259.06,262.53" transform="translate(-55.15 -150.04)"/><path class="cls-1" d="M332.65,353.54c-3.37-94.38-73.59-91-73.59-91s-73,3.93-75.85,91c0,0-8.42,42.13,75.85,42.13S332.65,353.54,332.65,353.54Z" transform="translate(-55.15 -150.04)"/><circle class="cls-1" cx="203.91" cy="74.86" r="51.12"/></svg>