<svg id="Слой_1" data-name="Слой 1" xmlns="http://www.w3.org/2000/svg" viewBox="0 0 283.56 416.38"><defs><style>.cls-1,.cls-2{fill:none;stroke-linecap:round;stroke-linejoin:round;}.cls-1{stroke:#b3b3b3;stroke-width:16px;}.cls-2{stroke:#999;stroke-width:30px;}</style></defs><title>btnmic2</title><path class="cls-1" d="M256,37" transform="translate(-114.17 -31.28)"/><path class="cls-1" d="M256,37" transform="translate(-114.17 -31.28)"/><path class="cls-2" d="M185.59,111.42" transform="translate(-114.17 -31.28)"/><path class="cls-1" d="M185.64,543.18" transform="translate(-114.17 -31.28)"/><path class="cls-1" d="M256,37" transform="translate(-114.17 -31.28)"/><path class="cls-2" d="M326.41,265.24V111.42S317.86,46.28,256,46.28s-70.36,65.14-70.36,65.14V265.24" transform="translate(-114.17 -31.28)"/><path class="cls-2" d="M255.9,330.38" transform="translate(-114.17 -31.28)"/><path class="cls-2" d="M255.9,330.38" transform="translate(-114.17 -31.28)"/><path class="cls-2" d="M185.53,265.24" transform="translate(-114.17 -31.28)"/><path class="cls-2" d="M255.9,330.38" transform="translate(-114.17 -31.28)"/><path class="cls-2" d="M185.53,265.24s8.46,65.14,70.37,65.14,70.46-65.14,70.46-65.14" transform="translate(-114.17 -31.28)"/><path class="cls-2" d="M256,377.05s126.73,7.13,126.73-149.7" transform="translate(-114.17 -31.28)"/><path class="cls-2" d="M129.17,227.35c0,156.83,126.73,149.7,126.73,149.7v55.61" transform="translate(-114.17 -31.28)"/></svg>