<?xml version="1.0" encoding="utf-8"?>
<!-- Generator: Adobe Illustrator 24.0.2, SVG Export Plug-In . SVG Version: 6.00 Build 0)  -->
<svg version="1.1" xmlns="http://www.w3.org/2000/svg" xmlns:xlink="http://www.w3.org/1999/xlink" x="0px" y="0px"
	 viewBox="0 0 512 512" style="enable-background:new 0 0 512 512;" xml:space="preserve">
<style type="text/css">
	.st0{fill:#FFFFFF;}
	.st1{fill:#2BA69D;}
</style>
<g id="Слой_2">
	<rect x="249" y="78.2" class="st0" width="137.2" height="355.6"/>
	<rect x="386.2" y="142.5" class="st0" width="95.8" height="291.3"/>
	<rect x="350" y="114" class="st0" width="69" height="69"/>
	<rect x="126.4" y="142.5" class="st0" width="122.6" height="291.3"/>
	<rect x="217" y="87" class="st0" width="100.6" height="90"/>
	<rect x="170" y="126" class="st0" width="86" height="57"/>
	<rect x="62.1" y="78.2" class="st0" width="66.4" height="34.3"/>
	<rect x="30" y="142.5" class="st0" width="134" height="291.3"/>
	<rect x="62.1" y="78.2" class="st0" width="66.4" height="92.8"/>
</g>
<g id="Layer_1">
	<g>
		<path class="st1" d="M497,112.5h-74.1L363,52.6c-2.8-2.8-6.6-4.4-10.6-4.4H256c-4,0-7.8,1.6-10.6,4.4l-59.9,59.9h-27V63.2
			c0-8.3-6.7-15-15-15H47.1c-8.3,0-15,6.7-15,15v49.3H15c-8.3,0-15,6.7-15,15v321.3c0,8.3,6.7,15,15,15h482c8.3,0,15-6.7,15-15
			V127.5C512,119.2,505.3,112.5,497,112.5z M62.1,78.2h66.4v34.3H62.1L62.1,78.2z M96.4,433.8H30V142.5h66.4V433.8z M482,433.8
			H126.4V142.5h65.3c4,0,7.8-1.6,10.6-4.4l59.9-59.9h84l59.9,59.9c2.8,2.8,6.6,4.4,10.6,4.4H482V433.8z"/>
		<path class="st1" d="M304.2,144.6c-70.3,0-127.5,57.2-127.5,127.5c0,70.3,57.2,127.5,127.5,127.5s127.5-57.2,127.5-127.5
			C431.7,201.8,374.5,144.6,304.2,144.6z M304.2,369.5c-53.7,0-97.5-43.7-97.5-97.5s43.7-97.5,97.5-97.5s97.5,43.7,97.5,97.5
			S357.9,369.5,304.2,369.5z"/>
		<path class="st1" d="M304.2,208.9c-34.8,0-63.2,28.4-63.2,63.2s28.4,63.2,63.2,63.2s63.2-28.4,63.2-63.2S339,208.9,304.2,208.9
			L304.2,208.9z M304.2,305.3c-18.3,0-33.2-14.9-33.2-33.2c0-18.3,14.9-33.2,33.2-33.2s33.2,14.9,33.2,33.2S322.5,305.3,304.2,305.3
			z"/>
	</g>
</g>
</svg>
