<svg id="Слой_1" data-name="Слой 1" xmlns="http://www.w3.org/2000/svg" viewBox="0 0 328.13 328.13"><defs><style>.cls-1{fill:#fff;stroke:#4abfb6;stroke-linecap:round;stroke-linejoin:round;stroke-width:30px;}</style></defs><title>btnstreamenter</title><path class="cls-1" d="M230.26,235.85l62.28,62.27c12.36,12.37,27.68,0,27.68,0l27.22-27.22c11.09-11.09,26.79.43,26.79.43l45.37,45.36s17.57,16.72,2.44,31.84l-32.26,32.26s-100,11.94-152.81-40.91L181.6,284.51" transform="translate(-115.06 -68.82)"/><path class="cls-1" d="M276.15,281.74l-62.27-62.27c-12.37-12.37,0-27.69,0-27.69l27.22-27.22c11.09-11.09-.43-26.79-.43-26.79L195.31,92.4S178.6,74.84,163.47,90l-32.26,32.26s-11.94,100,40.91,152.81l55.37,55.37" transform="translate(-115.06 -68.82)"/></svg>